# xmcd
#
# Track frame offsets: 
#        150
#        12458
#        28222
#        44135
#        53131
#        67638
#        94177
#        105951
#        120372
#        134988
#
# Disc length: 2042 seconds
#
# Revision: 1
# Processed by: cddbd v1.5.2PL0 Copyright (c) Steve Scherf et al.
# Submitted via: ExactAudioCopy v1.0b2
#
DISCID=8707f80a
DTITLE=Keith Scott - Universal Blues
DYEAR=2011
DGENRE=Electric Blues 
TTITLE0=No Mercy
TTITLE1=Down With Troubles
TTITLE2=Mean Mistreater
TTITLE3=Walking Alone
TTITLE4=Sitting Here Thinking
TTITLE5=Got to Have It
TTITLE6=Leaving Blues
TTITLE7=Georgia Blues
TTITLE8=Second Hand Man
TTITLE9=Living In My Own World
EXTD=
EXTT0=
EXTT1=
EXTT2=
EXTT3=
EXTT4=
EXTT5=
EXTT6=
EXTT7=
EXTT8=
EXTT9=
PLAYORDER=
